<svg version="1.1" id="Layer_1" xmlns="http://www.w3.org/2000/svg" xmlns:xlink="http://www.w3.org/1999/xlink"
	 viewBox="178.5 -163 434.7 132" style="enable-background:new 178.5 -163 434.7 132;" xml:space="preserve">
<g>
	<g>
		<g>
			<path d="M216.3-107.5c-1.1-0.9-1.4,2-1.2,2.6c0.1,1.3-0.4,1.6-0.4,2.6c0,4.8-1.5,3.7-2.8,7.2c-0.4,1.3-1.8,1.6-2.4,3.3l-1.5,1
				c-0.6,0-3.9,1.7-4.3,2.1c-1.1,1-3-0.3-3.7,0.6c-0.3,0.4-3.6,0.4-4,0.7c-0.3,0.3,0,0.6-0.6,0.3c-0.3,0-0.6-0.1-0.8-0.3
				c-0.4-0.4-1.2,0-1.8-0.1c-1-0.3-2.4-0.4-3.3-0.9c-0.6-0.3-1-1.1-1.7-1.3c-1.8-0.3-3.9-0.9-4.9-2.7c-0.7-1.1-3.3-5.1-3.5-6.3
				c0-1.3,0.3-4.1-0.3-5.3c-0.3-0.6-0.8-2.6-0.6-3.1c0.4-1,0.3-2.1,1.7-2.1c0.6-0.1,1-0.1,1.5-0.4c0.7-0.3,1.1,0.3,1.8,0.4
				c0.8,0.1,2.8-1.3,3.1,0.4c0.3,1.1-0.1,0.9,0.8,2c0.6,0.4,0,1.1-0.1,1.7c0,1.6,2.1,6.5,3.6,7.4c0.7,0.3,1.2,0.6,1.8,1
				c0.3,0.1,0.6-0.3,1-0.1c0.7,0,1.4,1.1,2.5,0.4c0.1-0.3,0.3-0.7,0.7-0.6c0.7,0.3,1.5,0.7,2.2,0.9c0.7,0.1,3.7-1,4-1.6
				c0.4-0.7,1.9-0.4,2.4-1.7c0.4-1,0.6-1.8,1.1-2.8c0.3-0.3,0.1-0.7,0.3-1.1c0.3-0.6-0.1-1,0.3-1.6c0.4-0.6,0.3-2,0-2.6
				c-0.4-0.9-0.8-3.3-1.5-5c0,0,0-0.1,0-0.3c-0.1-0.6-1.9-3.4-2.4-3.7c-1.8-1-3.3-2.3-4.6-3.8c-0.3-0.3-0.4-0.6-0.7-0.9
				c-0.1-0.1-0.4-0.1-0.6-0.4l-1.4-0.6c-1.5-0.7-2.4-2.6-4.2-3.6c-1.2-0.9-2.4-1.7-3.7-2.3c-0.6-0.1-1-0.7-1.2-1.1
				c-0.4-0.7-1-0.9-1.4-1.3c-0.1-0.1-0.1-0.4-0.3-0.6c-0.3-0.3-0.7-0.1-1-0.3c-0.4-0.3-3.9-5.1-4-5.8c-0.4-1.3,0.1-2.7-0.4-3.8
				c-1.2-2.6-1.4-4.1-1.1-6.8c0-1.1,1.4-5.5,2.1-6.4c0.3-0.3,0.4-0.7,0.7-1c0.7-0.4,1.4-0.7,2.1-1.1c0.8-0.4,1.2-1.6,1.9-2.1
				c0.7-0.4,3.2-1.3,4-1.4c1.1-0.1,2.9-1.6,4-0.9c0.7,0.6,6,0,7.9,0.6c1.1,0.4,1.8-1,2.8-0.6c1,0.6,3.2,2.3,4.2,1.6
				c0.7-0.7,2.5,0.9,3,1.4c0.4,0.7,0,1.3,0.8,1.8c0.6,0.4,0.8,0.6,1.2,1.1c0.8,2,0.7,7.3,2.1,9.7c0.4,0.9-0.4,3,1.1,2.8h0.1
				c-0.1,0.7-0.1,1.4-0.3,2c0,0.1-0.3,0.1-0.3,0.3l-1.5,0.1c-0.1-0.4-0.4-0.9-0.8-1.3c-0.7-0.7-1.9,0.4-2.8,0.4c-1,0-1.5,0.3-2.1,0
				c-0.6-0.4-0.4-1.4-0.8-2.1c0,0,0-0.1,0-0.3c-0.3-0.9,0.1-1.7-0.3-2.4c-0.7-1.6-0.7-2.7-2.1-4c-1.2-1.1,0.7-0.9-2.8-2.6
				c-1.1-0.4-2.5-0.7-3.6-1.3c-0.4-0.1-0.7,0-1.1,0.1c-0.7,0.1-1.9-0.6-3.2-0.3c-0.8,0.1-1.7,1-2.6,1c-0.6,0.1-0.8-0.4-1.2-0.6
				c-1-0.3-2.4,2.3-3.1,2.7c-0.7,0.7-2.1,1.3-2.4,2.3c-0.3,0.9-0.3,1.7-0.6,2.6c-0.1,0.4,0.8,3.7,1.2,4c0.1,0.1,0.3,0.1,0.4,0.3
				c0.3,1-0.1,1.1,0.7,2.1c1.2,1.3,0.6,2.4,2.6,3c0.8,0.1,1.1,0.9,2.6,2.1c1,0.7,2.4,2.1,3.7,2.7c1.2,0.6,2.6,1.7,3.7,2.7
				c0.1,0.1,0.1,0.4,0.3,0.7c0.6,0.6,1.9,0.4,2.6,1c0.4,0.4,2.1,2,2.5,2.1c1.7,0.7,2.1,2.3,3.1,2.7c1.1,0.3,1.2,1.3,1.5,2.4
				c0.1,0.4,0.8,0.3,1,0.7l0.1,0.4c0,0,0.3,0.1,0.4,0.1c0.4,0.4,0.1,2.1,1.1,2.8c0.3,0.3,0.8,2.1,1,2.6c0.7,1.4,0.3,4.4,2.5,4.4
				c0.1,0,0.4,0,0.6,0C218.5-108.2,216.8-107,216.3-107.5z"/>
			<path d="M282.6-148.4l-0.1,0.4c-0.1,1-0.1,2-0.4,3c-0.3,1.1-1.5,4-1.1,5.1c0.1,0.4,1,0.6,1.1-0.1c0.1-0.3,0.1-0.6,0.1-1
				c0-1.1,1.4-0.7,0.8,0.4c-0.1,0.4,0.3,1.1,0.1,1.3c-0.3,0.4-1.1-0.3-1.4,0c-0.6,0.6-0.4,1.8-0.8,2.6c-0.4,0.6-1.9,6.5-1.9,7.3
				c0,0.6-0.1,1.6-0.4,2c-0.6,1.1,0.3,3.7,0.7,4.8c0.8,2.4-1.8,0.9-2.2,2c-0.7,2.6-1.7,5.5-1.9,8.1c-0.1,1.3-1,1.8-0.6,3.1
				c0.1,0.3,0.3,0.6,0.4,0.9c0,0.6-1.9,2.7-1.7,3.3c0.1,0.4,0.6,0.9,0.1,1.1c-0.6,0.6-2.6,11.9-2.8,13.2c0,0.6,0,1-0.3,1.3
				c-0.1,0.4-0.4,0.9-0.7,1.1c-0.7,0.7-5.4,1.7-5.7,0.6c-0.4-1.4-1.8-10.2-1.9-10.5c-0.3-0.3-3.6-16.6-3.7-17.8
				c-0.1-1-0.3-0.6-1-0.6c-0.6,0-0.8-0.3-1.4,0c-0.3,0-0.3-0.6-0.1-0.7c1-1.1,2.2,0.9,1.8-1.8c-0.1-0.7-1.5-6.7-1.8-7.1
				c-0.8-1.8-1.4-3.6-1.7-5.7c-0.3-2.1-0.4-4.4-1-6.5c0-0.1-0.4-2.1-0.8-1.8c-1.2,1-2.9,12.5-3.3,14.8c-0.1,1-1,1.6-1.2,2.4
				c-0.1,0.6,0,0.9-0.3,1.4c-0.3,0.7,0.1,1.3,0,2c0,0.3-0.1,0.6-0.4,0.9c-0.4,0.7-0.3,1.6-0.7,2.4c-0.3,0.7,0,2.1-0.3,2.8
				c0,0.3-0.1,0.4-0.3,0.6l-0.1,1.7c-0.4,0-0.8,3.3-0.8,3.7l-0.4,0.7c0,1.7-0.8,5-1.4,6.7c-0.4,1.4-0.6,3.8-1,5.4
				c0,0.4-0.4,0.7-0.6,1.1c-0.1,0.7,0.3,0.9-0.1,1.7c-0.1,0.4-0.3,0.9-0.3,1.3c-0.1,0.7-0.8,1.3-1,2c-0.1,1.4-1.8,0-3.2,0.7
				c-0.4,0.1-1.4,0.6-1.8,0.1c-0.3-0.6-1-0.1-1.4-0.6c-1-0.7-0.4-2.1-1.9-2.4c-1.5-0.6-1-2-0.1-2.8c0.7-0.9,0.1-1.1,0.1-2
				c-0.1-0.4,0.1-1.6-0.1-2c-0.7-1.1-0.7-2.6-1.4-3.7c-0.4-0.6,0.1-1.1,0.1-1.8c0.4-3.1-1.1-2.6-1.4-4.1c0-0.6-0.3-0.4-0.4-0.9
				c-0.4-0.9-0.3-2.6-0.6-3.7c-0.4-1.3-0.8-5.1-1.2-5.7c-0.6-0.6,0-1.3-0.1-2c-0.3-1.1-2.1-5.8-1.9-6.5c0.3-1,0.1-1-0.4-1.7
				c-0.7-0.7,0.4-2.4-0.7-4.4c-0.1-0.3-0.6-2.4-0.6-3c-0.1-1.7-1.1-3.4-1.5-5.1c-0.3-1.7-1-3.6-1.1-5.4c-0.1-1.8-0.1-3.7-1-5.4
				c-0.7-1.4-0.3-3.4-1.1-4.5c-0.3-0.6,0-1.1-0.1-1.7c-0.1-0.4-0.4-0.7,0.4-0.7c0.6,0,1-0.4,1.4-0.4h2.6c0.4,0,0.7,0.3,1.1,0.3
				c1,0.1,0.7,0.6,0.8,1.3c0.4,1.4,0.8,4.7,1.4,5.5c0,0.1,0.7,3.1,0.8,3.4c0.3,1.8,1.7,4.1,2.1,6c0.3,0.7,0.1,1.6,0.3,2.3
				c0.1,2.1,1,4.1,1,6.3c0,2.7,1.2,5.7,1.8,8.2c0.4,1.8,0.7,3.8,1.1,5.7c0.3,1.6,0.8,5,1.7,6.3c0.4,0.4,1,7.8,2.6,6
				c0.6-0.6,0.7-1.7,1.1-2.4c0.4-1.3,0.8-2.6,0.8-4l0.1-0.3c0-1.8,0.3-1,0.7-2.4c0.4-1.7,0.6-3.6,0.8-5.3c0.6-2.7,1.5-5.1,1.9-7.8
				c0.3-1.7,1.2-3.4,1.5-5.1c0.4-2.7,1.4-5.5,1.4-8.2c0-1.6-0.6-1.7,0-3.4c0.3-0.7,0.4-1.4,0.7-2.1c0.4-1,0.3-2,0.7-3
				c0.6-1.3,1-3.3,1.2-4.7c0.7-3.6,3.5-1.3,5.1-2.1c1.2-0.7,3.3,0.1,3.7,1.4c0.1,1.1,0.4,2.4,0.8,3.6c0.4,1.6-0.1,4,0.4,5.8
				c1.4,1.8,0.6,4.7,1.4,6.5c0.3,0.7,0,0.9-0.1,1.3c0,0.4,1.5,3,1.4,4.3c-0.1,3,1.4,5.8,1.4,7.7c0,0.7-0.3,1.4,0.1,2
				c0.4,0.6,1.9,8.8,2.1,10.1c0.1,2.3,1.5,4.3,1.5,6.5c0.1,0.6-0.1,1.6,0.8,1.4c1.5-0.1-0.1-1.7,1.2-2.3c0.6-0.3-0.1-1,0.1-1.7
				c0.4-0.6,0.6-3.1,0.6-4c0-0.3,1.5-6.3,1.5-6.3c0.6-1,0.6-3.4,0.7-3.8c0.7-0.9,0.3-2,0.6-3c0-0.3,0.3-0.9,0.1-1.1
				c-0.3-0.7-1.4,1.1-1.4,0c-0.1-0.7,1-0.3,1.4-0.4c1-0.3,1-5.4,1.7-6.5c0.3-0.4,0.4-1,0.4-1.4v-3.6c2.1-2.8,2.5-12.9,4-16.9
				c0.4-0.9,5.4-0.6,5.7,0C284.4-157.9,282.7-150.1,282.6-148.4z M247.3-163.6c0.3-0.1,0.6,0.4,0.3,0.6
				C247.2-162.8,246.9-163.3,247.3-163.6z"/>
			<path d="M318.8-89.1c-0.8,0-2.6,0.4-3.2,0c-0.7-0.4-1.4,0.3-2.1-0.4c-0.1-0.1-1.5-4.6-1.5-5c-0.3-2.3,0.1-1.6-1.7-2.4
				c-0.4-0.1-0.8-0.3-1.1-0.3c-1.2,0.3-2.2,0.6-3.5,0.1c-0.6-0.1-0.8,0.6-1.4,0.4c-1.4-0.4-8.5,0-9.2-0.6c-1.4-0.1-2.9,0.3-4.4,0.3
				c-1.2,0-1.2,1.1-1.9,2c-1,1.1,0.4,3.7-0.8,5.1c-0.6,0.7-3.1,0.9-3.7,0.3c-0.4-0.1-0.8,0.1-1.3,0c-0.6,0-1.1-0.3-1.8-0.3
				c-1.7-0.1-1.4-0.7-1.2-2.1c0.1-0.6-0.3-1.1-0.3-1.7c0-0.7,0.6-1.8,0.8-2.6c0.3-0.4,0.1-0.9,0.1-1.3c0-2.1,1.7-4,1.7-6.1
				c0-0.6-0.1-1.3,0.3-1.7c1.1-1.8,1.4-6.1,1.9-7c0.3-0.3,0.6-0.4,0.7-0.8c0.4-1.1,0-3,0.6-4.3c0.3-1,0.8-1.8,1-2.8
				c0.3-2.4,2.4-8.7,3.2-11.8c0.1-0.9,0.6-1.6,0.6-2.4c0-0.9,0.7-1.6,0.6-2.6c-0.1-0.4,2.1-6.7,2.5-7.5c0.6-1.3,0.4-3.7,0.7-4.8
				c0.1-0.7,1.1-1.3,1.4-2.1c0.4-1,0.8-4.5,1.4-5.3c0.8-1,0.6-2.6,1.4-3.3c0.6-0.4,1.2,0,1.7,0c0.6-0.1,0.7-0.7,1.4-0.6
				c0.3,0,0.7,0.1,1.1,0.1c0.7-0.1,1.1,0.3,1.7,0.3c0.8,0.1,1.5,2.6,1.1,3c-0.4,0.6,0.7,1.8,1,2.4c0.4,1.6,1.1,3.4,1.2,5.1
				c0.1,1.1,0.8,2.3,1.1,3.4c0.4,1.4,0.4,5.1,1.1,6c0.6,0.9,1.1,6,2.4,8.1c0.3,0.6-0.4,1.1-0.3,1.8c0.1,0.9,0.8,1.4,1,2.3
				c0.4,2.8,1.4,5.5,1.7,8.4c0.1,1.4,1.5,2.7,1.5,4.3c0.3,2.7,1.4,5.7,1.9,8.4c0.1,0.6,0.7,2.7,1.1,3.1v1.4l0.3,0.4
				c0,0.4-0.1,0.9,0.1,1.1c0.3,0.7,0.1,1.1,0.3,1.8c0.3,1.4,1.1,2.7,1.4,4.3c0,0.3,0,0.4,0,0.7c0.4,1,0.1,1.4,0.3,2.3
				c0,0.6,0.8,2.1,0.3,2.3C320.7-89.3,319.7-89.1,318.8-89.1z M308.2-112.9c-0.1-1.1-0.7-2.3-0.8-3.4c-0.1-0.9-0.4-4.5-0.8-5
				c-0.6-0.7,0.4-2-0.6-3.3c-0.7-1-1.5-4.1-1.7-5.4c-0.1-1.7-1.4-3-1.4-4.7c-0.1-0.7,0-0.6-0.4-1.1c-0.1-0.1-1.2-4.1-1.4-4.8
				c-0.1-0.3-0.6-0.6-0.8-0.3c-0.3,0.1-0.3,0.6-0.6,0.9c-0.3,0.6,0,1-0.1,1.4c-0.8,2.8-1.5,5.8-2.2,8.7c-0.1,0.7,0,1.6-0.1,2.3
				c-0.4,1.3-1.1,2.7-1.7,4c-0.3,1.1-1.4,6.5-1.5,7.7l-0.6,0.9c0,0.6-0.3,1,0,1.6c0.4,1-0.7,1.6-0.8,2.6c-0.3,1.6-1,3.1-1,4.8
				l-0.1,0.3c0,0.4-0.3,0.7-0.4,1.1c0,1.1,2.2,0.9,2.9,0.9c0.6,0,1.1,0.3,1.8,0.3c0.1,0,0.4-0.1,0.6-0.3c0.3,0,0.3,0.1,0.6,0.1
				c1.1,0.4,3.6-0.7,4.9-0.3c0.7,0.3,1.8,0.7,2.5,0.7c1.4,0,2.8-0.6,4.3-0.1c2.8,0.6,0.4-5.1,0.3-6.4
				C308.8-110.9,308.5-111.9,308.2-112.9z"/>
			<path d="M374.4-124.7c-0.3,1.7-0.3,3.4-0.7,5.1c0.3,1.6,0.8,8,0.6,9.1c-0.3,1,0.7,3.7,0.1,4.7c-0.1,0.3-0.1,0.4-0.3,0.7
				c-0.6,3.3,0.4,10.8,0,14.9c-0.1,2-1.2,1.6-2.8,1.7c-1.1,0.1-3.1,1.1-3.9-0.1c-1.8-2.4-0.1-2-0.1-4.4c0-0.4-0.3-0.7-0.4-1.1
				c-0.3-1.6,0.6-4,0.6-5.7c0-1.8,0-7.8-0.3-9c-0.4-1.1-0.1-1.4,0.1-2.4c0.3-1.1-0.3-1.4-0.4-2.4c0-0.9,0.8-3.4,0.6-3.8
				c-0.4-1,0.6-3.3-0.1-3.8c-0.3-0.3-0.4-2.6-0.4-3.1c-0.1-2.7-1.9-4.7-2.4-1.4c-0.1,1.1-1.5,2.3-1.9,3.3c-0.7,2-1.4,4-2.1,6
				c-0.8,2.8-2.9,4.8-3.3,7.8c0,0.9-0.6,2.3-1.1,3c-1.1,1.4-1.5,5.5-2.6,6.5c-1.1,0.9-1.1,5.1-2.2,5.7c-0.3,0.3-0.7,0.7-1.1,0.8
				c-0.7,0.1-1.7-2.8-2.1-3.4c-0.6-1.1-1.1-2.3-1.4-3.6c-0.1-1-0.6-2.1-1-2.8c-0.7-1.1-0.4-2.4-1-3.6c-0.1-0.3-0.1-0.7-0.4-1.1
				c-1-1.7-0.4-3.7-1.4-5.4c-0.6-1-1.2-2.3-2.1-3.1c-0.8-0.8-0.8-1.1-0.8-2.4c0-0.6-0.3-1-0.3-1.4c0-2.4-1-4.6-2.1-6.5
				c-0.4-1.1-0.8-3.4-2.4-3.1c-1.7,0.3-1.4,3.4-1.4,4.5c0,1.6-0.6,3.1-0.4,4.7c0.4,2.3-0.4,4.6,0,6.8c0.1,0.4,0.3,0.7,0.3,1.1
				c0.1,0.6-0.3,1-0.3,1.6c0,1,0.1,2.1,0,3.1c0,0.6-0.3,1.1-0.3,1.6c-0.1,1.7,0.4,3.3,0.4,4.8c-0.1,2.4,0.1,4.3-0.6,6.7
				c-0.4,1.8,0.7,5.1-1,6.7c-1.2,1-2.5-0.6-3.9-0.6c-2.4,0-1.5-7.4-1.5-9.1c0-0.9-0.1-1.8,0-2.8c0-0.6,0.7-1.1,0.3-1.7
				c-1-2,0-3.4,0-5.4c-0.1-1.6-0.3-3-0.3-4.5c0-0.3-0.4-0.6-0.3-1c0-0.4,0.3-0.7,0.4-1.1c0-0.6,0.3-3.1,0.4-3.6c0-0.3-0.1-0.7-0.1-1
				c-0.1-1.1,0.1-2.4,0-3.6c-0.1-0.9-0.4-1.8-0.4-2.7c0-0.4,0.3-0.9,0.3-1.3c0.1-0.9,0.1-1.8,0.1-2.7c0-0.9-0.1-1.6,0-2.3
				c0.3-1.1-0.3-1.4-0.3-2.4l-0.1-0.1c0-0.6,0.4-1,0.4-1.4c0-4.7,0.3-9.2,0-13.8c0-0.4,0.1-0.4,0.3-0.7c0.6-1-0.7-4.1,0.7-6.1
				c0.6-0.7-0.3-2,0.4-2.6c0.6-0.4,2.2,0.1,3.3-0.1c1.5-0.4,1,0.3,2.1,0.7c2.4,0.9,3.5,8.8,5,11.1c0.6,1,0.3,2.1,1,3
				c1.2,1.6,2.6,8.2,2.9,8.5c0.4,0.4,0.8,0.7,1.1,1.3c0.3,1.1,0.4,4.1,1.4,4.7c0.4,0.3,1.4-0.3,1.4,0.1c0.1,0.4-0.6,0.6-0.8,1
				c-0.4,0.7,3,10.9,4.3,11.9c1.4,1.4,1.8-0.8,2.5-1.7c0.3-0.3,2.2-5.3,2.5-6c0.3-1,0.1-2,0.7-2.8c0.8-0.9,0-2.1,1.1-3.3
				c1.7-2.1,1.7-6.4,2.9-8.8c0.7-1.4,1.7-2.4,1.9-4c0.1-0.7,0.7-2,1.1-2.6c0.7-0.9,0.6-2.1,1.1-3c1-1.6,0.8-3.8,1.9-5.3
				c0.3-0.4,0.6-0.4,0.8-0.9c0.4-0.4,0.4-1.6,0.8-2.3c0.6-0.7,2.1-3.4,3.1-1.4c1.1,0.4,1.9-0.6,3.5,0c0.4,0.3,0.4,0.4,0.7,0.7v15.1
				c0,0.9-0.3,1.6-0.3,2.3c0,0.9-0.1,1.7-0.1,2.6c0,1.3,0.7,3.3,0.4,4.5C374.4-129.9,374.9-127.4,374.4-124.7z"/>
			<path d="M420.4-131.2c0,1.3-0.1,2.4-0.8,3.6c-0.6,0.7-0.6,1.6-1.1,2.3c-2.8,4.8-5.5,6-11,6l-1.1,0.6l-1.2-0.1
				c-1.9,0.9-1.5-0.6-2.9-0.4c-0.4,0-0.7,0.3-1.1,0.4c-0.6,0.1-2.5,0.1-3-0.1c-1-0.6-2.8,0.1-3.7,0.4c-0.6,0-0.3-0.1-0.7-0.3
				c-0.3,0-0.4,0.3-0.7,0.3c-0.4,0.1-0.7-0.4-1.1-0.4c-2.6-0.7-2.9,6-2.9,7.4c0,0.7-0.7,4.1-0.6,4.4c0.6,1.3,0.3,2.4,0.7,3.7
				c0.1,0.8,0.3,3.3,0,4c-0.3,0.7,0.4,1.3,0.1,2c-0.1,0.6-0.4,4.1-0.1,4.7c0.6,1,0.1,1.7-0.1,2.8c-0.4,2.1-5.3,2.6-5.8,0.6l-0.6-1.6
				c-0.3,0,0-1.4,0-1.7c0.1-0.9,0-1.8,0-2.7c0-0.6,0.3-1,0.4-1.6c0.3-2.6-0.6-5.4,0.1-8c0.1-0.9-0.7-1.8-0.6-2.7
				c0.7-2.1,0-5.1,0.1-7.5c0.1-3.7,1-7.4,0.4-11.1c-0.1-1.1-0.3-2.4-0.3-3.6c0-3.4,0.3-6.7,0.1-10.1c-0.1-0.7-0.3-1.6,0.1-2.1
				c0.4-0.9-0.3-1.6,0.3-2.1c0.8-1.1-0.3-1.6,0.1-2.6c0.4-0.9-0.3-0.7-0.8-1.1c-0.7-0.6-1.1,0-1.5-0.1c-1.5-0.3,0.8-1.4,1.2-1.6
				c1.2-0.1,1.2-0.7,1.2-2v-1.8c0-0.7,1.1-4,1.8-4.1c0.4,0,0.8,0.3,1.2,0.4c1.7,0.1,2.1-0.6,3.2-0.6c1.1,0,2.2-0.3,3.3-0.3
				c0.8,0,1.5,0.7,2.4,0.9c1.9,0,3.6-1.6,5.5-0.6c1.7,1,4.4-2.3,4.9-0.6c0,0.1,0,0.4,0.1,0.6c0.1,0.1,0.7-0.3,0.8-0.3
				c1-0.6,4.9,0.3,5.7,1.1c0.4,0.4,1.2,0.7,1.8,0c0.4-0.6,0.8,1,1.1,1.1c0.6,0.6,1.4,1.4,1.9,2.3c0.7,0.9,1,1,1.2,1.3
				c0.3,0.3,0,0.7,0.1,1c0.8,2.8,0.3,6.4,1.1,8.5c0.1,0.4,0,0.9,0,1.1c0.4,1.8,0.3,3.6,0.4,5.4c0,1,0.7,1.8,0.3,2.8
				C420.3-132.8,420.4-131.9,420.4-131.2z M413.5-139c-0.1-0.9,0.7-3.8-0.4-4.3c-0.1,0-0.6,0.3-0.6,0c-0.1-0.6,0.1-1,0.1-1.4
				c-0.1-1.4-0.8-1.4-1.9-2.8c-1-1.3-2.1-1.8-4.4-2.6c-1.4-0.6-2.5-0.6-3.2-0.6c-0.1,0-0.1-0.1-0.3-0.1c-0.4-0.7-2.9-2-3.7-1.4
				c-1,0.9,0.1,3.8-2.4,2.4c-0.7-0.3-2.9,0.7-3.3,0.1c-0.4-0.6,0-1.3-0.8-1.6c-1.5-0.6-2.8,0.4-3.2,2c-0.1,0.7-0.4,1.7-0.4,2.4
				c0,0.6,0.3,0.9,0.4,1.4c0,0.4,0.4,4.3,0.3,4.7c-0.3,2,0,4-0.3,6c-0.4,2-0.4,4-0.3,6c0.4,5.8,10.3,2.7,11.9,4.1
				c1.7,1.4,6-1.1,6.8-0.6c1.7,0.9,2.2-1.3,3.5-2c0.6-0.3,0.8-0.3,1-1c1.1-3.7,1.5-5.4,1.5-9.4C413.8-138,413.5-138.6,413.5-139z"/>
		</g>
		<g>
			<path d="M484.1-126.3c-0.3,0.3,0.5,2.8,0.5,3.5c0.1,1.4-0.1,2.5-0.4,3.9c-0.3,1.1,1.1,3.3,0.4,4.4c-0.4,0.4-0.7,0.8-0.7,1.4
				c0.3,1.8,0.3,3.5,0.3,5.1c0.1,5.1,0.5,10.6,0,15.7c0,0.3-0.4,0.8-0.4,1.1c0,1.5,0,3.3-1.1,4.6c-0.5,0.6-4.3-0.1-5.4,0
				c-0.4,0-0.7-0.1-1-0.3c0-2.6-0.5-7.6-0.5-7.9c0.1-1,0.5-1.8,0.5-2.8c0-1.2-1.9-0.6-2.6-1.2c-0.9-1.1,0.5-3.1,0.5-4.3
				c0-1.8-0.1-2.5,1.5-3.5c1.1-0.6,0.5-2.1,0.5-3.1c0.1-0.4,0.4-1,0.4-1.5c-0.1-0.3-0.4-0.6-0.4-0.8c0-0.4,0.3-0.4,0.3-0.7
				c0.4-1.3,0.1-6.4-1.8-6.1c-1.1,0.1-2.2,0-3.1,0.3c-1.8,0.4-2.6-1-4.2-1.1c-1.4,0-2.6,0.7-3.9,0.7c-1.4,0-2.8-0.7-4.2-0.8
				c-1.2-0.1-2.2,0.6-3.4,0.4c-1.2-0.7-5.7-0.1-5,1.7c0.4,1,0.9,2.1,0.8,3.2c0,0.8-0.3,1.2-0.1,1.9c0.1,0.4,0,1.5,0.3,1.8
				c0.4,0.4,0.4,0.8,0.5,1.4c0.1,1.7-0.9,3.3-0.8,5c0.1,0.4,0.4,0.7,0.4,1c0.1,0.6,0.1,1.1-0.1,1.5c-0.5,0.7-0.1,1.5,0,2.4
				c0,0.7-0.1,1.2-0.3,1.9c-0.3,2.1,0.8,5.3,0,7.2c-0.4,1,0.4,2.9-1,3.1c-2.3,0.3-1.6,1-3.8-0.3c-0.4-0.1-0.7-0.1-0.9-0.3
				c-0.4-0.3-0.5-1.1-0.8-1.5c-0.9-1.5-0.1-3.3,0.4-4.9c0.3-0.7-0.9-2.5-1.1-3.3c0-0.7,0.5-1.4,0.5-2.1c0-1.1-0.3-1.8,0.1-2.9
				c0.3-0.6-0.4-3.5-0.5-4.3c0.4-2.1,0-4.3,0.8-6.3c0.1-0.6,0.5-1.1,0.5-1.7c0.3-1.4-0.3-3.8-0.3-5.3c-0.3-0.8-1-1.8-0.7-2.8
				c0.7-1.8-0.8-6,0.1-7.6c0.8-1.4,0.1-1.8,0.1-3.2c0-1.5,0.7-3.1,0.7-4.6c0-0.6-0.1-1-0.3-1.5c-0.4-3.2-0.7-6.5,0-9.9
				c0.3-1.5-0.1-3.3,0.3-4.9c0.5-1.5,2.3-1.5,3.5-1.2c0.8,0.1,2.3-0.4,2.7,0.3c0.1,0.4,0.5,4.6,0.4,4.9c-0.8,1-0.3,1.2-0.5,2.1
				c-0.1,0.3-0.4,0.1-0.3,0.6c0.3,0.8,0.4,4.3,0.5,4.4c0.5,0.8-0.1,1.2-0.3,2.1c-0.1,1.3,0.4,2.5,0.4,3.9c0,2.9-1.5,2.4-0.5,6.2
				c0.8,1,0,3.2,1.2,3.6c0.8,0.3,1.8,0.3,2.6,0.7c0.7,0.3,1.5-0.1,2,0.1c0.4,0.1,0.7,0.6,1.1,0.7c0.7,0.1,0.8-0.6,1.4-0.7
				c1.5-0.4,3.3,0,4.7-0.1c1.9-0.1,3.9-0.1,5.8-0.1c1.5,0,1.4,0.6,3,0.1c0.7-0.1,1.4,0,1.9-0.3c0.7-0.4,0.8-1.8,0.9-2.5
				c0.3-1,0.7-1,0.3-2.1c-0.4-0.7,0.4-3.1,0.7-3.9c0.4-1.2-0.4-4.6-0.4-6c0-2.5,0-4.7,0.7-7.1c0.1-0.4,0.1-3.2,0-3.5
				c-0.5-0.8-0.3-3.6,0.8-4c0.4-0.1,2.3,0,2.8,0.1c4.1,0.7,3,5.3,2.7,8.2c0,0.8,0.4,1,0.4,1.4c0,2.9,0.1,6,0.1,8.9
				C484.7-136.3,484.5-126.9,484.1-126.3z"/>
			<path d="M524.6-148.7c-1.8-1.7-3.5-0.8-5.7-0.7c-0.5,0.1-1-0.3-1.5-0.4c-1.5-0.3-1.1-0.4-2.6,0.1c-0.3,0.1-0.8,0.1-1-0.1h-3.5
				c-1.2,0-2.6,0.8-3.8,0.4c-1.6-0.6-6.5-0.4-8,0c-2.7,0.8-0.9,5.3-1.6,6.5c-0.4,1-0.3,2.2,0.1,3.2c0.1,0.4-0.1,0.6-0.1,1.1
				c-0.4,2.4,0,5.1,0.1,7.5c0,1.4-0.8,3.6,0.8,4.4c1.2,0.6,2.6,0.3,3.8,0.1c1.2-0.1,9.2,0.1,9.8,0.7c1.2,1.1,1.5,5.4,0.5,6.7
				c-0.5,0.7-2.3,1.1-3.1,1.1c-0.1-0.1-0.3-0.1-0.4-0.3c-3.1-0.8-3,0-5.8,0.3c-1.8,0-2.7-1-4.5,0c-2.2,1.1-1.4,7.1-1.9,9.3
				c-0.5,1.9-0.3,3.5,0.1,5.3c0.3,2.1-1.2,3.3,0.4,6.5c0.3,0.6,0.8,0.7,1.1,1.1c1.4,1.2,3.7-0.3,5,0.6c2.3,1.5,6.1,0.6,8.4,0.8
				c0.5,0,1-0.1,1.5,0c0.4,0,0.7,0.3,1.1,0.3c1.2,0,2.4,0,3.7-0.1c0.7-0.1,6.9,1.2,7.2,1.8c0.5,0.7,0.7,1.9,0.7,2.9
				c0.3,1.8-0.7,1.4-2,1.7c-3.3,0.6-6.4-0.6-9.6-0.3c-2.3,0.3-4.6-0.4-6.9-0.1c-1.6,0.3-3.7,0.3-5.3,0.1c-0.4-0.1-0.7-0.4-1.1-0.4
				c-0.7-0.1-1.2,0.4-1.9,0.4c-0.4,0-0.8-0.3-1.4-0.4c-2.2-0.4-4.5,0.4-6.5-0.4c-1.8-0.7-1.8-2.5-1.6-4.2c0.1-1.4,0.4-2.6,0.4-4
				c-0.1-0.6,0.3-1,0.3-1.7s-0.3-1.5-0.3-2.2c-0.3-1.2,0.1-2.5,0-3.6c-0.1-0.4-0.4-0.8-0.4-1.2c-0.1-1.5,0.4-2.4,0.4-3.3
				c0-0.8-0.3-1.9,0.1-2.8c0.4-0.8,0.3-1.9,0.7-2.9c0.3-0.8-0.5-1.9-0.5-2.9c0-0.7,0.1-1.5,0.1-2.4c-0.1-0.4-0.3-0.8-0.4-1.2
				c0-0.7,0.5-1.8,0.3-2.5c-0.5-1.1,0-4.9,0.1-6.3c0-0.3,0.1-1.7-0.1-1.8l-0.3-1.1c0.7-3.3,0.4-6.9,0.4-10.4c0-1.2-0.7-5.3-0.4-6.1
				c0.4-1.1,1.1-3.5,0.9-4.6c0-0.7,0.1-1,0.5-1.5c0.1-0.1,1.1-0.1,1.4-0.3c2.2-1,8.1,0.4,9.9-0.4c0.7-0.4,3.8,0.3,4.7,0.3
				c0.7,0.1,0.8-0.6,1.5-0.1c0.3,0.3,0.7,0.7,1.1,0.7c0.8-0.3,1.5-1,2.4-1.1c0.5,0,0.9,0.1,1.5,0.4c1.4,0.7,1.8-0.1,2.4,0
				s1.4,0.4,2,0.6c0.5,0.1,5.6-1.1,6.6-0.6c0.4,0.3,1.2,0.3,1.6,0.7C527.9-153,526.5-146.7,524.6-148.7z"/>
			<path d="M566.2-88.7c-0.8,0-2.6,0.4-3.1,0c-0.7-0.4-1.4,0.3-2-0.4c-0.1-0.1-1.5-4.4-1.5-4.9c-0.3-2.2,0.1-1.5-1.6-2.4
				c-0.4-0.1-0.8-0.3-1.1-0.3c-1.2,0.3-2.2,0.6-3.4,0.1c-0.5-0.1-0.8,0.6-1.4,0.4c-1.4-0.4-8.3,0-8.9-0.6c-1.4-0.1-2.9,0.3-4.3,0.3
				c-1.2,0-1.2,1.1-1.9,1.9c-0.9,1.1,0.4,3.6-0.8,5c-0.5,0.7-3,0.8-3.7,0.3c-0.4-0.1-0.8,0.1-1.2,0c-0.5,0-1.1-0.3-1.8-0.3
				c-1.6-0.1-1.4-0.7-1.2-2.1c0.1-0.6-0.3-1.1-0.3-1.7c0-0.7,0.5-1.8,0.8-2.5c0.3-0.4,0.1-0.8,0.1-1.2c0-2.1,1.6-3.9,1.6-6
				c0-0.6-0.1-1.2,0.3-1.7c1.1-1.8,1.4-6,1.9-6.8c0.3-0.3,0.5-0.4,0.7-0.8c0.4-1.1,0-2.9,0.5-4.2c0.3-1,0.8-1.8,1-2.8
				c0.3-2.4,2.3-8.5,3.1-11.5c0.1-0.8,0.5-1.5,0.5-2.4c0-0.8,0.7-1.5,0.5-2.5c-0.1-0.4,2-6.5,2.4-7.4c0.5-1.2,0.4-3.6,0.7-4.7
				c0.1-0.7,1.1-1.3,1.4-2.1c0.4-1,0.8-4.4,1.4-5.1c0.8-1,0.5-2.5,1.4-3.2c0.5-0.4,1.2,0,1.6,0c0.5-0.1,0.7-0.7,1.4-0.6
				c0.3,0,0.7,0.1,1.1,0.1c0.7-0.1,1.1,0.3,1.6,0.3c0.8,0.1,1.5,2.5,1.1,2.9c-0.4,0.6,0.7,1.8,0.9,2.4c0.4,1.5,1.1,3.3,1.2,5
				c0.1,1.1,0.8,2.2,1.1,3.3c0.4,1.4,0.4,5,1.1,5.8c0.5,0.8,1.1,5.8,2.3,7.9c0.3,0.6-0.4,1.1-0.3,1.8c0.1,0.8,0.8,1.4,1,2.2
				c0.4,2.8,1.4,5.4,1.6,8.2c0.1,1.4,1.5,2.6,1.5,4.2c0.3,2.6,1.4,5.6,1.9,8.2c0.1,0.6,0.7,2.6,1.1,3.1v1.4l0.3,0.4
				c0,0.4-0.1,0.8,0.1,1.1c0.3,0.7,0.1,1.1,0.3,1.8c0.3,1.4,1.1,2.6,1.4,4.2c0,0.3,0,0.4,0,0.7c0.4,1,0.1,1.4,0.3,2.2
				c0,0.6,0.8,2.1,0.3,2.2C568.1-88.8,567.2-88.7,566.2-88.7z M555.9-111.9c-0.1-1.1-0.7-2.2-0.8-3.3c-0.1-0.8-0.4-4.4-0.8-4.9
				c-0.5-0.7,0.4-1.9-0.5-3.2c-0.7-1-1.5-4-1.6-5.3c-0.1-1.7-1.4-2.9-1.4-4.6c-0.1-0.7,0-0.6-0.4-1.1c-0.1-0.1-1.2-4-1.4-4.7
				c-0.1-0.3-0.5-0.6-0.8-0.3c-0.3,0.1-0.3,0.6-0.5,0.8c-0.3,0.6,0,1-0.1,1.4c-0.8,2.8-1.5,5.7-2.2,8.5c-0.1,0.7,0,1.5-0.1,2.2
				c-0.4,1.2-1.1,2.6-1.6,3.9c-0.3,1.1-1.4,6.4-1.5,7.5l-0.5,0.8c0,0.6-0.3,1,0,1.5c0.4,1-0.7,1.5-0.8,2.5c-0.3,1.5-0.9,3.1-0.9,4.7
				l-0.1,0.3c0,0.4-0.3,0.7-0.4,1.1c0,1.1,2.2,0.8,2.8,0.8c0.5,0,1.1,0.3,1.8,0.3c0.1,0,0.4-0.1,0.5-0.3c0.3,0,0.3,0.1,0.5,0.1
				c1.1,0.4,3.5-0.7,4.7-0.3c0.7,0.3,1.8,0.7,2.4,0.7c1.4,0,2.7-0.6,4.2-0.1c2.7,0.6,0.4-5,0.3-6.3
				C556.5-109.9,556.2-110.9,555.9-111.9z"/>
			<path d="M612.9-107.8c0.4,1-0.4,1.7-0.5,2.5c-0.1,1,0.1,1.8-0.1,2.8c-0.4,1.8-0.8,2.2-0.3,4c0,0.4-0.1,1.5-0.3,1.7
				c-1.2,1.2-0.1,4.3-1.1,5.4c-0.1,0.1-0.1,0.7-0.4,0.7c-0.4-0.1-0.1-3.6-0.8-3.3c-0.4,0.1-0.3,1-0.7,1.1c-0.7,0.3-0.7,0.7-1.1,1
				c-0.8,0.7-1.9,1.4-2.7,1.9c-0.5,0.1-2.3,1.5-2.9,1.4c-1.8-0.7-2.6,1.8-3.7,1c-0.7-0.4-1.4,0.3-2-0.1c-0.8-0.6-1.6-0.1-2.6,0
				c-0.3,0-0.3-0.4-0.5-0.4c-0.8-0.1-2.4,0.8-3.4,0.7c-0.4,0-0.7-0.3-1-0.3c-1.6,0.1-3.3-0.3-4.9-0.1c-0.5,0-0.7,0.4-1.4,0.1
				c-0.8-0.1-0.5,0.4-1.2,0.4c-1.1,0.1-1.8-0.8-2.3-1l-0.1,0.1c-0.8-0.1-1.6-0.1-2.3,0.3c-0.7,0.4-0.5,0.1-0.9-0.3
				c-0.3-0.1-1.1-0.3-1.5-0.4c-0.5-0.3-1.2-4.9-1-5.4c0.8-1.5-0.3-4.2,0-4.7c1.1-1.8-0.3-2.9-0.1-4.6c0.1-1,0.8-2.2,0.3-3.2
				c-0.9-1.5,0.3-6.1-0.4-8.3c-0.1-0.4-0.4-0.8-0.1-1.2c0.3-0.6,0.3-2.2,0-2.8c-0.3-0.4,0-0.8,0.1-1.3c0-0.4-0.1-1-0.1-1.4
				c0-0.6,0.5-2.1,0.3-2.5c-0.3-0.7-0.1-1.1-0.1-1.8c0-1.7-1.4-1.2-0.7-1.9c0.9-1.1,0.5-6.5,0.3-8.1c-0.1-1.2,0-3.1,0.1-4.3
				c0.3-2.4-0.1-4.7,0-7.2c1.2-1.5-0.7-4.9,0.1-6.3c0.8-1.3-0.1-1.5,0-2.8c0.3-1.7,1.9-1,2.7-1.4c0.3-0.1,0.3-0.3,0.4-0.3
				c0.3-0.1,0.4,0.1,0.7,0.3c0.4,0.1,1.8,0.1,2.3,0.1c0.5,0,1.1-0.8,1.5-0.4c0.5,0.7,2-0.1,2.4,0.1c0.9,0.4,0.5,0,1.4-0.1
				c0.9-0.1,1.8,0.1,2.6,0l0.5,0.3c0.1,0.3,0.8,0,1,0c0-0.3,0.4,0,0.5,0.1h1.1c0,0.6,1.6-0.3,1.9-0.3c0.3-0.3,2.6,0.3,3.1,0.3
				c0.5,0.6,1.1,0,1.6-0.1c0.8,0,1.6,0.4,2.3,0.4l0.8,0.3c0.4,0,0.7-0.4,1.1-0.3c0.5,0.3,3.7,1.2,3.8,1.4c0.3,0.4,0.7,0.7,1.2,0.6
				c0.4,0.1,1.1,0.4,1.2,0.8c0.4,0.7,0.9,1,1.5,1.5c0.4,0.4,1.6,2.9,1.6,3.5c0.3,1.1,0.3,3.8,0.8,4.7c0.3,0.4,0.1,1.7,0.1,2.2
				c1.2,1.8-0.7,1.8,0,2.9c0.8,1.3,0,2.8,0,4.2l0.3,0.3c0,1,0,1.8-0.3,2.6c-0.1,1,0.1,1.9,0,2.9c0,0.4,0.4,0.7,0.3,1.4
				c-0.1,0.4-0.5,0.6-0.3,1.1c0.4,0.7,0.4,5,0.3,5.8c0,0.8-0.3,1.7,0,2.5c0,0.4,0.1,0.6,0,1c-0.5,1.8,0.3,1.4,0.1,2.2
				c-0.1,0.3-0.5,2.8,0.3,2.5c0.4-0.1,0.5-1.5,0.8-1.2c0.5,0.7,0.3,1.7,0.4,2.5c0.1,0.3,0.3,0.8,0.1,1.2
				C612.9-109.9,612.4-108.8,612.9-107.8z M602.4-116.6c0.3-1.2,0-2.9,0-4.2c-0.1-0.7-0.4-0.8-0.3-1.5c0.1-1.3,0.1-2.6,0.1-3.9
				l-0.4-0.6l0.4-1.4c0.4-0.6-0.1-11.1-0.1-12.9c0-0.4-0.9-4-1.2-4.3c-1.1-1.5-2.7-2.5-4.5-2.9c-1-0.1-1.9,0.4-2.9-0.1
				c-1.1-0.7-10.8-0.3-11.4,1c-0.3,0.3,0.1,1.1,0.1,1.5c0,1.9-0.3,3.9,0,5.7c0,0.4,0.3,1,0.1,1.3c0,0.1-0.1,0.3-0.1,0.4
				c0,1.7,0.1,3.5,0.1,5.3l0.4,1.1c0,0.4,0.1,1.1,0.1,1.5c-0.1,0.7-0.5,0.6-0.3,1.4c0.4,1.1-0.3,2.5,0.1,3.5c0,0.4,0.7,0.6,0.5,1
				c-1.1,1.9,0.1,2.4-0.3,3.5c-1,2.8,0.3,3.2,0,3.9c0,0.3-0.3,0.6-0.3,1c0.1,1.7,0.1,3.2-0.3,4.9c-0.1,1.1,0.3,2.5,0,3.5
				c-0.5,1.4,0,0.7,0.3,1.8c0.4,2.5-0.7,6.4,0.4,8.6c0.4,0.8,1.6,0.1,2.2,0.3c2.2,0.6,7.7,0.4,10.2,0.4l0.7-0.7
				c0.4-0.1,0.7,0.4,1.1,0.4c0.7,0.1,0.8-0.8,1.4-0.6c1.6,0.7,3.8-3.3,3.8-4.6c0-1.1,0.1-10.1,0.3-10.8
				C603.4-114.8,602.3-115.6,602.4-116.6z"/>
		</g>
	</g>
	<g>
		<path d="M296.1-57.9c-0.4,1.9,0.1,1.8-1.6,3.2c-0.3,0.3-1.9,1.8-1.7,2.2c0.2,0.2,0.7,0.5,0.9,0.8c1.4,1.2,2,3.3,2,5.1
			c0,1.4,0.2,2.8,0.1,4.2c0,0.5-0.1,1-0.1,1.5c0,1.4-0.2,4-0.8,5.2c-1.2,2.5-4.1,3.3-6.7,3.3c-0.3,0-0.6-0.1-1,0
			c-0.5,0.1-3.2,0.6-3.6,0.4c-0.9-0.6-2.2-0.4-3.3-0.5c-1.3-0.2-2.6,0-3.9,0c-0.5,0-1,0.2-1-0.6c0-0.3-0.2-0.5-0.2-0.8
			c0-0.8-0.2-4.2,0.2-4.8c0.2-0.4-0.2-0.8-0.2-1.2c0-0.3,0.2-0.5,0.2-0.8c0-1-0.2-2.1-0.2-3.1l0.2-0.2c0-0.2,0.1,0,0.1-0.4
			c0-0.2-0.1-0.5-0.1-0.7c0-0.5,0.3-1,0.1-1.5c-0.1-0.3-1.5-0.9-1.2-1.2c0.2-0.3,0.6,0.2,1,0.1c0.6-0.2-0.2-1.5,0.1-2.1
			c0.5-0.9,0.1-2.2,0.4-2.8c0.3-0.5-0.1-0.8-0.1-1.2v-3.1c0-0.4,0.2-0.8,0.2-1.2c-0.1-0.4-0.3-0.7-0.3-1.1c0-0.6,0.2-1.3,0.1-1.9
			c-0.1-1.4-0.2-2.7-0.2-4.1c-0.1-1.5,0.2-2.9,0.2-4.4c0-0.6,0.7-0.7,1.1-1c0.5-0.4,0.9,0.4,2-0.2c0.6-0.3,1.1,0.1,1.7,0.2
			c0.7,0.1,3.6-0.2,3.9,0.2c0.2,0.2,1.8-0.4,2.1-0.4c0.2,0,1.6,0.3,1.6-0.1l0.6,0.2c0.1-0.4,0.6,0,0.7,0c2.3-0.1,2.6,0.4,4.4,1.5
			c0.2,0.2,1.3,1.4,1.3,1.6c0.4,0.6,0.9,2.5,1,3.3c0,0.5-0.2,1.2-0.2,1.8c0,0.3,0.2,0.5,0.2,0.8c0,0.5-0.7,0.4-0.4,1.2
			c0.2,0.2,0.3,0.2,0.3,0.5c0.1,0.5,0.1,1,0.2,1.5C296.4-58.3,296.2-58.1,296.1-57.9z M291.5-47.8c-0.2-0.4-0.7-1.4-1-1.5
			c-1.1-0.6-3.2-1.2-4.5-1.3c-0.8,0-1.5,0.4-2.3,0.4c-1-0.1-2.3-0.2-3.2,0.5c-0.6,0.5-1.1,2.9-0.9,3.6c0.2,0.5-0.1,0.9,0.2,1.2
			c0.6,0.5-0.2,3.7-0.2,4.5c0,0.5,0,1,0.1,1.5c0.1,0.3,0.2,0.5,0.3,0.8c0.1,0.5,0,1.2,0.5,1.5c0.2,0.1,2.9,0.2,3.2,0.2
			s0.4-0.2,0.7-0.2h1.9l0.3-0.2c1,0.1,1.8,0,2.6-0.5c0.5-0.3,0.6,0.1,1.1-0.5c0.4-0.5,1-0.5,1.3-1.2
			C292.1-40.5,291.9-46.2,291.5-47.8z M290.1-66.2c-0.2-0.2-0.4-0.4-0.6-0.5c-0.4-0.1-1.5,0-1.8-0.2c-0.5-0.2-0.9,0-1.4-0.1
			c-0.7-0.2-1.2-0.4-1.8,0c-0.9,0.6-4.3-0.3-4.6,1.2c-0.2,0.5,0.1,1-0.2,1.4c-0.3,0.5,0,0.9,0,1.4c0,0.7,0,4.2,0.1,4.5
			c0.4,0.9-0.5,3.4,0.4,4.2c0.8,0.6,1.5-0.5,2.3,0c0.7,0.5,1.7-0.1,2.6,0.1c2.3,0.3,3.1,0.3,5.1-1c0.5-0.4,1-0.3,1.3-1.2
			c0.4-1.2,0.4-2.1,0.6-3.3c0-0.2,0.2-1,0.2-1.1C291.5-62.8,292.2-64.9,290.1-66.2z"/>
		<path d="M330.8-55.9c-0.7-0.2-0.4,0.9-0.7,1.2c-0.2,0.4-0.8,1.2-0.9,1.6c-0.1,0.5,0.1,0.4-0.3,0.8c-0.7,0.6,1,1.3,1.1,1.8
			c0.1,0.4,0.1,0.6,0.4,0.9c0.2,0.3,0.2,2.3,0.2,2.9c0,0.2,0.1,0.4,0.1,0.6c0.1,0.3-0.1,0.5-0.1,0.8c-0.1,0.8-0.2,3.1,0.1,3.8
			c0.1,0.2-0.1,0.5-0.1,0.8c0,0.2,0.3,0.5,0.4,0.6c0.1,0.2-0.2,0.8-0.3,1.1c0,0.5,0.4,0.8,0.4,1.3c0,0.7-0.8,1.1-0.8,1.8
			c0.1,0.3,0.2,0.6,0.2,0.9c0,0.4-0.5,3.2-0.5,3.4c-0.1,0.1-1-0.2-1.3-0.2c-0.3,0.1-1,1.1-1.2,0.5c-0.4-1.5-0.5-0.4-1.2-0.9
			c-0.2-0.2-0.5-1.7-0.6-2.1c0-0.3,0.1-0.7,0.1-1c0-0.6-0.9-1.4-0.4-2c0.7-0.9,0.4-1.2,0.4-2.2c-0.1-0.5,0.2-0.8,0.1-1.3
			c0-0.9-0.7-1.2-1.3-1.5c-0.2-0.1,0.1-0.4,0.1-0.5c0.2-0.5-0.8-0.8-0.5-1.2c0.1-0.2,0-0.7,0.2-0.8c0.6-0.2,0.7,1.9,1,2.2
			c0.4,0.2,0.5-0.1,0.5-0.3c0.2-0.8,0.1-2.4,0-3.6c0-0.2,0-0.2-0.1-0.4l-0.1-0.5c0-0.2-0.1-1.2-0.4-0.8c0,0.1,0,0.2,0,0.2
			c-0.2-0.2-0.2-0.4-0.3-0.5c-0.2-0.4-0.8-0.6-1.3-0.8c-0.1-0.1,0-0.2-0.1-0.3c-0.2-0.2-2.4-0.5-2.7-0.7c-0.4-0.2-0.6,0.2-0.9,0.2
			c-0.4,0-1.1-0.3-1.1,0.4c0,0.5-0.3,0.7-0.2,1.3c0.2,0.5-0.3,1.4-0.7,0.9c-1.2-1.5,0.9-2.2-0.1-2.7c-0.6-0.2-3.1,0-3.2,0.8
			c-0.1,0.6-0.2,1.3-0.4,1.8c-0.3,0.8,0,1.8,0.1,2.7c0.1,0.5,0,1.2,0,1.8c0,0.5-0.1,0.9,0,1.5c0.1,0.6-0.2,1.8,0,2.4
			c0.3,0.6,0.1,2.9,0.2,4.2c0,0.1-0.2,0.1-0.2,0.2c-0.3,1.1,0.3,2.6-1.3,2.8c-0.5,0.1-2.4-0.1-2.7-0.5c-0.3-0.4-0.8-3.7-0.7-4.2
			c0.1-0.2,0-0.5,0.1-0.6c0-0.1,0.1-0.2,0.2-0.2c0.1-0.2-0.1-1.1,0.1-1.3c0.2-0.3,0.2-0.4,0.2-0.7c-0.2-1.2-0.3-4.7-0.1-5.8
			c0.2-0.8,0.2-7.1-0.1-7.7c-0.1-0.4-0.4-0.6-0.1-0.9c0.4-0.5,0-3.5,0.2-4.2l0.1-0.1c0.1-0.7,0.3-1,0.2-1.7c-0.4-2.2-0.2-4.7-0.2-7
			c0-0.6,0.2-2.4,0-2.9c-0.2-1,1.7-0.8,2.2-1.2c0.4-0.4,0.2-0.7-0.2-1c-0.3-0.3,0.2-0.5,0.4-0.4c0.6,0.3,1.6,0.3,2.2,0.7
			c0.2,0.2,1.2,0.9,1.5,1c0.8,0.1,1.6,0.1,2.3,0c0.6-0.1,0.8-0.5,1.3-0.1c0.3,0.2,1.4,0.1,1.9,0.1c0.9,0,1.3,0.5,1.7,0.5
			c0.3,0,0.4-0.2,0.7-0.2c0.3-0.1,1.4,0.6,1.8,0.2c0.8-0.7,3.1,1.5,3.5,2.3c0.2,0.5,0.2,1.1,0.4,1.6c0.5,1.2,0.5,2.6,0.6,3.9
			c0,0.4,0.2,0.8,0.2,1.2c0.1,1.1-0.5,1.2-0.2,2.7c0.2,0.6-0.2,2.1,0.1,2.5c0.2,0.2,1.1-0.1,0.8,0.7
			C331.5-55.1,331.1-55.8,330.8-55.9z M326.7-64.7c-0.2-0.2-1.7-1.8-2-1.8c-0.4-0.2-0.8-0.1-1.2,0c-0.4,0.2-0.1,0.5-0.2,0.8
			c-0.1,0.2-0.5-0.2-0.5-0.2c-0.1-0.4,0.1-0.2,0.2-0.5c0.2-0.4-1-0.3-1.3-0.3c-0.4,0.1-1-0.1-1.5-0.1c-0.4,0-0.7,0.3-1.1,0.2
			c-0.3-0.1-0.4-0.4-0.8-0.3c-0.8,0.1-2,0-2.6,0.5c-1.1,1.1,0,4.6-0.6,5.2c-0.2,0.2-0.2,0.4-0.2,0.6c-0.1,0.4,0.2,0.7,0.2,1.1
			c0,1.2-0.2,2.5,0,3.7c0.1,0.9,0.7,0.9,1.5,1c0.7,0.1,2.1,0.6,2.7,0.3c0.2-0.1,0.2-0.2,0.4-0.1c0.5,0.3,1.8,0.1,2.4,0.2
			c0.4,0.1,0.5,0.1,1-0.2c0.3-0.1,0.7,0,0.9-0.1c1-0.4,2.2-1.2,2.4-2.4l0.2-1.7c0.4-0.7,0.3-1.7,0.3-2.5c0-0.3,0.2-0.5,0.2-0.8
			C327-62.4,326.7-64.5,326.7-64.7z"/>
		<path d="M365.6-66c-1-0.9-2-0.5-3.2-0.4c-0.3,0.1-0.5-0.2-0.8-0.2c-0.8-0.2-0.6-0.2-1.4,0.1c-0.2,0.1-0.4,0.1-0.5-0.1h-2
			c-0.7,0-1.4,0.5-2.1,0.2c-0.9-0.3-3.6-0.2-4.4,0c-1.5,0.5-0.5,2.9-0.9,3.6c-0.2,0.5-0.2,1.2,0.1,1.8c0.1,0.2-0.1,0.3-0.1,0.6
			c-0.2,1.3,0,2.8,0.1,4.2c0,0.8-0.4,2,0.4,2.5c0.7,0.3,1.4,0.2,2.1,0.1c0.7-0.1,5.1,0.1,5.4,0.4c0.7,0.6,0.8,3,0.3,3.7
			c-0.3,0.4-1.3,0.6-1.7,0.6c-0.1-0.1-0.2-0.1-0.2-0.2c-1.7-0.5-1.7,0-3.2,0.2c-1,0-1.5-0.5-2.5,0c-1.2,0.6-0.8,3.9-1,5.2
			c-0.3,1.1-0.2,1.9,0.1,2.9c0.1,1.2-0.7,1.8,0.2,3.6c0.2,0.3,0.4,0.4,0.6,0.6c0.8,0.7,2-0.2,2.8,0.3c1.3,0.8,3.4,0.3,4.6,0.5
			c0.3,0,0.5-0.1,0.8,0c0.2,0,0.4,0.2,0.6,0.2c0.7,0,1.4,0,2-0.1c0.4-0.1,3.8,0.7,4,1c0.3,0.4,0.4,1.1,0.4,1.6
			c0.2,1-0.4,0.8-1.1,0.9c-1.8,0.3-3.5-0.3-5.3-0.2c-1.3,0.2-2.6-0.2-3.8-0.1c-0.9,0.2-2,0.2-2.9,0.1c-0.2-0.1-0.4-0.2-0.6-0.2
			c-0.4-0.1-0.7,0.2-1,0.2c-0.2,0-0.4-0.2-0.8-0.2c-1.2-0.2-2.5,0.2-3.6-0.2c-1-0.4-1-1.4-0.9-2.3c0.1-0.8,0.2-1.5,0.2-2.2
			c-0.1-0.3,0.2-0.5,0.2-0.9c0-0.4-0.2-0.8-0.2-1.2c-0.1-0.7,0.1-1.4,0-2c-0.1-0.2-0.2-0.5-0.2-0.7c-0.1-0.8,0.2-1.3,0.2-1.8
			c0-0.5-0.1-1.1,0.1-1.5c0.2-0.5,0.2-1.1,0.4-1.6c0.2-0.5-0.3-1.1-0.3-1.6c0-0.4,0.1-0.8,0.1-1.3c-0.1-0.2-0.2-0.5-0.2-0.7
			c0-0.4,0.3-1,0.2-1.4c-0.3-0.6,0-2.7,0.1-3.5c0-0.2,0.1-0.9-0.1-1l-0.2-0.6c0.4-1.8,0.2-3.8,0.2-5.8c0-0.7-0.4-2.9-0.2-3.4
			c0.2-0.6,0.6-1.9,0.5-2.5c0-0.4,0.1-0.5,0.3-0.8c0.1-0.1,0.6-0.1,0.7-0.2c1.2-0.5,4.5,0.2,5.5-0.2c0.4-0.2,2.1,0.2,2.6,0.2
			c0.4,0.1,0.5-0.3,0.8-0.1c0.2,0.2,0.4,0.4,0.6,0.4c0.4-0.2,0.8-0.5,1.4-0.6c0.3,0,0.5,0.1,0.8,0.2c0.7,0.4,1-0.1,1.3,0
			s0.7,0.2,1.1,0.3c0.3,0.1,3.1-0.6,3.7-0.3c0.2,0.2,0.7,0.2,0.9,0.4C367.4-68.4,366.6-64.9,365.6-66z"/>
		<path d="M412.9-64.8l-0.1,0.2c-0.1,0.5-0.1,1.1-0.2,1.6c-0.2,0.6-0.8,2.2-0.6,2.8c0.1,0.2,0.5,0.3,0.6-0.1
			c0.1-0.2,0.1-0.3,0.1-0.5c0-0.6,0.7-0.4,0.4,0.2c-0.1,0.2,0.2,0.6,0.1,0.7c-0.1,0.2-0.6-0.2-0.8,0c-0.3,0.3-0.2,1-0.4,1.4
			c-0.2,0.3-1,3.5-1,3.9c0,0.3-0.1,0.8-0.2,1.1c-0.3,0.6,0.2,2,0.4,2.6c0.4,1.3-1,0.5-1.2,1.1c-0.4,1.4-0.9,3-1,4.4
			c-0.1,0.7-0.5,1-0.3,1.7c0.1,0.2,0.2,0.3,0.2,0.5c0,0.3-1,1.5-0.9,1.8c0.1,0.2,0.3,0.5,0.1,0.6c-0.3,0.3-1.4,6.5-1.5,7.1
			c0,0.3,0,0.5-0.2,0.7c-0.1,0.2-0.2,0.5-0.4,0.6c-0.4,0.4-2.9,0.9-3.1,0.3c-0.2-0.8-1-5.5-1.1-5.7c-0.1-0.2-1.9-9-2-9.6
			c-0.1-0.5-0.2-0.3-0.5-0.3c-0.3,0-0.4-0.2-0.7,0c-0.2,0-0.2-0.3-0.1-0.4c0.5-0.6,1.2,0.5,1-1c-0.1-0.4-0.8-3.6-1-3.8
			c-0.4-1-0.7-1.9-0.9-3.1s-0.2-2.4-0.5-3.5c0-0.1-0.2-1.2-0.4-1c-0.7,0.5-1.6,6.8-1.8,8c-0.1,0.5-0.5,0.8-0.7,1.3
			c-0.1,0.3,0,0.5-0.2,0.8c-0.2,0.4,0.1,0.7,0,1.1c0,0.2-0.1,0.3-0.2,0.5c-0.2,0.4-0.2,0.8-0.4,1.3c-0.1,0.4,0,1.2-0.1,1.5
			c0,0.2-0.1,0.2-0.2,0.3l-0.1,0.9c-0.2,0-0.4,1.8-0.4,2l-0.2,0.4c0,0.9-0.4,2.7-0.8,3.6c-0.2,0.8-0.3,2.1-0.5,2.9
			c0,0.2-0.2,0.4-0.3,0.6c-0.1,0.4,0.2,0.5-0.1,0.9c-0.1,0.2-0.1,0.5-0.1,0.7c-0.1,0.4-0.5,0.7-0.5,1.1c-0.1,0.8-1,0-1.7,0.4
			c-0.2,0.1-0.7,0.3-1,0.1c-0.2-0.3-0.5-0.1-0.8-0.3c-0.5-0.4-0.2-1.2-1-1.3c-0.8-0.3-0.5-1.1-0.1-1.5c0.4-0.5,0.1-0.6,0.1-1.1
			c-0.1-0.2,0.1-0.8-0.1-1.1c-0.4-0.6-0.4-1.4-0.8-2c-0.2-0.3,0.1-0.6,0.1-1c0.2-1.7-0.6-1.4-0.7-2.2c0-0.3-0.2-0.2-0.2-0.5
			c-0.2-0.5-0.2-1.4-0.3-2c-0.2-0.7-0.4-2.8-0.7-3.1c-0.3-0.3,0-0.7-0.1-1.1c-0.2-0.6-1.1-3.2-1-3.5c0.1-0.5,0.1-0.5-0.2-0.9
			c-0.4-0.4,0.2-1.3-0.4-2.4c-0.1-0.2-0.3-1.3-0.3-1.6c-0.1-0.9-0.6-1.8-0.8-2.8c-0.1-0.9-0.5-1.9-0.6-2.9c-0.1-1-0.1-2-0.5-2.9
			c-0.4-0.8-0.1-1.8-0.6-2.5c-0.2-0.3,0-0.6-0.1-0.9c-0.1-0.2-0.2-0.4,0.2-0.4c0.3,0,0.5-0.2,0.8-0.2h1.4c0.2,0,0.4,0.2,0.6,0.2
			c0.5,0.1,0.4,0.3,0.5,0.7c0.2,0.8,0.4,2.5,0.7,3c0,0.1,0.4,1.7,0.5,1.8c0.1,1,0.9,2.2,1.1,3.2c0.1,0.4,0.1,0.8,0.1,1.2
			c0.1,1.2,0.5,2.2,0.5,3.4c0,1.5,0.7,3.1,1,4.5c0.2,1,0.4,2.1,0.6,3.1c0.2,0.8,0.4,2.7,0.9,3.4c0.2,0.2,0.5,4.2,1.4,3.2
			c0.3-0.3,0.4-0.9,0.6-1.3c0.2-0.7,0.4-1.4,0.4-2.2l0.1-0.2c0-1,0.2-0.5,0.4-1.3c0.2-0.9,0.3-1.9,0.4-2.8c0.3-1.5,0.8-2.8,1.1-4.2
			c0.1-0.9,0.7-1.8,0.8-2.8c0.2-1.5,0.8-3,0.8-4.5c0-0.8-0.3-0.9,0-1.8c0.2-0.4,0.2-0.8,0.4-1.2c0.2-0.5,0.2-1.1,0.4-1.6
			c0.3-0.7,0.5-1.8,0.7-2.5c0.4-1.9,1.9-0.7,2.8-1.2c0.7-0.4,1.8,0.1,2,0.8c0.1,0.6,0.2,1.3,0.4,1.9c0.2,0.8-0.1,2.2,0.2,3.2
			c0.8,1,0.3,2.5,0.8,3.5c0.2,0.4,0,0.5-0.1,0.7c0,0.2,0.8,1.6,0.8,2.3c-0.1,1.6,0.7,3.2,0.7,4.2c0,0.4-0.1,0.8,0.1,1.1
			c0.2,0.3,1,4.8,1.1,5.5c0.1,1.2,0.8,2.3,0.8,3.5c0.1,0.3-0.1,0.8,0.4,0.8c0.8-0.1-0.1-0.9,0.7-1.2c0.3-0.2-0.1-0.5,0.1-0.9
			c0.2-0.3,0.3-1.7,0.3-2.2c0-0.2,0.8-3.4,0.8-3.4c0.3-0.5,0.3-1.8,0.4-2.1c0.4-0.5,0.2-1.1,0.3-1.6c0-0.2,0.1-0.5,0.1-0.6
			c-0.1-0.4-0.7,0.6-0.7,0c-0.1-0.4,0.5-0.2,0.7-0.2c0.5-0.2,0.5-2.9,0.9-3.5c0.2-0.2,0.2-0.5,0.2-0.8v-1.9c1.1-1.5,1.3-7,2.2-9.2
			c0.2-0.5,2.9-0.3,3.1,0C413.9-70,413-65.8,412.9-64.8z M393.9-73.1c0.1-0.1,0.3,0.2,0.1,0.3C393.8-72.6,393.6-72.9,393.9-73.1z"/>
		<path d="M444.3-66c-1-0.9-1.9-0.5-3.2-0.4c-0.3,0.1-0.5-0.2-0.8-0.2c-0.8-0.2-0.6-0.2-1.4,0.1c-0.1,0.1-0.4,0.1-0.5-0.1h-1.9
			c-0.7,0-1.4,0.5-2.1,0.2c-0.9-0.3-3.6-0.2-4.4,0c-1.5,0.5-0.5,2.9-0.9,3.6c-0.2,0.5-0.2,1.2,0.1,1.8c0.1,0.2-0.1,0.3-0.1,0.6
			c-0.2,1.3,0,2.8,0.1,4.2c0,0.8-0.4,2,0.4,2.5c0.7,0.3,1.4,0.2,2.1,0.1c0.7-0.1,5.1,0.1,5.4,0.4c0.7,0.6,0.8,3,0.3,3.7
			c-0.3,0.4-1.3,0.6-1.7,0.6c-0.1-0.1-0.2-0.1-0.2-0.2c-1.7-0.5-1.7,0-3.2,0.2c-1,0-1.5-0.5-2.5,0c-1.2,0.6-0.8,3.9-1.1,5.2
			c-0.3,1.1-0.1,1.9,0.1,2.9c0.2,1.2-0.7,1.8,0.2,3.6c0.1,0.3,0.4,0.4,0.6,0.6c0.8,0.7,2-0.2,2.8,0.3c1.3,0.8,3.4,0.3,4.6,0.5
			c0.3,0,0.5-0.1,0.8,0c0.2,0,0.4,0.2,0.6,0.2c0.7,0,1.4,0,2-0.1c0.4-0.1,3.8,0.7,4,1c0.3,0.4,0.4,1.1,0.4,1.6
			c0.2,1-0.4,0.8-1.1,0.9c-1.8,0.3-3.5-0.3-5.3-0.2c-1.3,0.2-2.6-0.2-3.8-0.1c-0.9,0.2-2,0.2-2.9,0.1c-0.2-0.1-0.4-0.2-0.6-0.2
			c-0.4-0.1-0.7,0.2-1,0.2c-0.2,0-0.4-0.2-0.8-0.2c-1.2-0.2-2.5,0.2-3.6-0.2c-1-0.4-1-1.4-0.9-2.3c0.1-0.8,0.2-1.5,0.2-2.2
			c-0.1-0.3,0.2-0.5,0.2-0.9c0-0.4-0.2-0.8-0.2-1.2c-0.2-0.7,0.1-1.4,0-2c-0.1-0.2-0.2-0.5-0.2-0.7c-0.1-0.8,0.2-1.3,0.2-1.8
			c0-0.5-0.2-1.1,0.1-1.5c0.2-0.5,0.2-1.1,0.4-1.6c0.1-0.5-0.3-1.1-0.3-1.6c0-0.4,0.1-0.8,0.1-1.3c-0.1-0.2-0.2-0.5-0.2-0.7
			c0-0.4,0.3-1,0.2-1.4c-0.3-0.6,0-2.7,0.1-3.5c0-0.2,0.1-0.9-0.1-1l-0.2-0.6c0.4-1.8,0.2-3.8,0.2-5.8c0-0.7-0.4-2.9-0.2-3.4
			c0.2-0.6,0.6-1.9,0.5-2.5c0-0.4,0.1-0.5,0.3-0.8c0.1-0.1,0.6-0.1,0.8-0.2c1.2-0.5,4.5,0.2,5.5-0.2c0.4-0.2,2.1,0.2,2.6,0.2
			c0.4,0.1,0.4-0.3,0.8-0.1c0.1,0.2,0.4,0.4,0.6,0.4c0.4-0.2,0.8-0.5,1.3-0.6c0.3,0,0.5,0.1,0.8,0.2c0.8,0.4,1-0.1,1.4,0
			c0.4,0.1,0.8,0.2,1.1,0.3c0.3,0.1,3.1-0.6,3.7-0.3c0.2,0.2,0.7,0.2,0.9,0.4C446.1-68.4,445.3-64.9,444.3-66z"/>
		<path d="M480.2-55.9c-0.7-0.2-0.5,0.9-0.7,1.2c-0.2,0.4-0.8,1.2-0.9,1.6c-0.1,0.5,0.1,0.4-0.3,0.8c-0.7,0.6,1,1.3,1.1,1.8
			c0.1,0.4,0.2,0.6,0.4,0.9c0.2,0.3,0.1,2.3,0.2,2.9c0,0.2,0.2,0.4,0.2,0.6c0.1,0.3-0.1,0.5-0.1,0.8c-0.1,0.8-0.2,3.1,0.1,3.8
			c0.1,0.2-0.1,0.5-0.2,0.8c0,0.2,0.3,0.5,0.4,0.6c0.1,0.2-0.2,0.8-0.3,1.1c0,0.5,0.4,0.8,0.4,1.3c0,0.7-0.8,1.1-0.7,1.8
			c0.1,0.3,0.2,0.6,0.2,0.9c0,0.4-0.4,3.2-0.5,3.4c-0.1,0.1-1-0.2-1.3-0.2c-0.3,0.1-1,1.1-1.2,0.5c-0.4-1.5-0.5-0.4-1.2-0.9
			c-0.2-0.2-0.5-1.7-0.6-2.1c0-0.3,0.1-0.7,0.1-1c0-0.6-0.9-1.4-0.4-2c0.7-0.9,0.4-1.2,0.4-2.2c-0.1-0.5,0.2-0.8,0.2-1.3
			c0-0.9-0.8-1.2-1.4-1.5c-0.2-0.1,0.1-0.4,0.1-0.5c0.1-0.5-0.8-0.8-0.5-1.2c0.1-0.2,0-0.7,0.2-0.8c0.6-0.2,0.8,1.9,1,2.2
			c0.4,0.2,0.5-0.1,0.5-0.3c0.2-0.8,0.1-2.4,0-3.6c0-0.2,0-0.2-0.1-0.4l-0.1-0.5c0-0.2-0.1-1.2-0.4-0.8c0,0.1,0,0.2,0,0.2
			c-0.2-0.2-0.2-0.4-0.3-0.5c-0.2-0.4-0.8-0.6-1.3-0.8c-0.1-0.1,0-0.2-0.1-0.3c-0.2-0.2-2.4-0.5-2.7-0.7c-0.5-0.2-0.6,0.2-0.9,0.2
			c-0.4,0-1.1-0.3-1.1,0.4c0,0.5-0.3,0.7-0.2,1.3c0.2,0.5-0.3,1.4-0.8,0.9c-1.2-1.5,0.9-2.2-0.1-2.7c-0.6-0.2-3.1,0-3.2,0.8
			c-0.1,0.6-0.2,1.3-0.4,1.8c-0.3,0.8,0,1.8,0.1,2.7c0.1,0.5,0,1.2,0,1.8c0,0.5-0.1,0.9,0,1.5c0.1,0.6-0.2,1.8,0,2.4
			c0.3,0.6,0.1,2.9,0.2,4.2c0,0.1-0.2,0.1-0.2,0.2c-0.3,1.1,0.3,2.6-1.3,2.8c-0.5,0.1-2.4-0.1-2.7-0.5c-0.3-0.4-0.8-3.7-0.7-4.2
			c0.1-0.2,0-0.5,0.1-0.6c0-0.1,0.1-0.2,0.2-0.2c0.1-0.2-0.1-1.1,0.1-1.3c0.2-0.3,0.2-0.4,0.2-0.7c-0.2-1.2-0.3-4.7-0.1-5.8
			c0.2-0.8,0.2-7.1-0.1-7.7c-0.1-0.4-0.4-0.6-0.1-0.9c0.4-0.5,0-3.5,0.2-4.2l0.1-0.1c0.1-0.7,0.3-1,0.1-1.7c-0.4-2.2-0.1-4.7-0.1-7
			c0-0.6,0.1-2.4,0-2.9c-0.2-1,1.7-0.8,2.2-1.2c0.4-0.4,0.2-0.7-0.2-1c-0.3-0.3,0.2-0.5,0.5-0.4c0.6,0.3,1.6,0.3,2.2,0.7
			c0.2,0.2,1.2,0.9,1.5,1c0.8,0.1,1.6,0.1,2.3,0c0.6-0.1,0.8-0.5,1.4-0.1c0.3,0.2,1.4,0.1,1.9,0.1c0.9,0,1.3,0.5,1.7,0.5
			c0.3,0,0.5-0.2,0.8-0.2c0.3-0.1,1.4,0.6,1.8,0.2c0.8-0.7,3.1,1.5,3.5,2.3c0.2,0.5,0.2,1.1,0.4,1.6c0.5,1.2,0.5,2.6,0.6,3.9
			c0,0.4,0.2,0.8,0.2,1.2c0.1,1.1-0.5,1.2-0.2,2.7c0.2,0.6-0.2,2.1,0.1,2.5c0.2,0.2,1.1-0.1,0.8,0.7
			C480.9-55.1,480.5-55.8,480.2-55.9z M476.1-64.7c-0.2-0.2-1.7-1.8-2-1.8c-0.4-0.2-0.8-0.1-1.2,0c-0.4,0.2-0.1,0.5-0.2,0.8
			c-0.2,0.2-0.5-0.2-0.5-0.2c-0.2-0.4,0.1-0.2,0.1-0.5c0.2-0.4-1-0.3-1.3-0.3c-0.4,0.1-1-0.1-1.5-0.1c-0.4,0-0.7,0.3-1,0.2
			c-0.3-0.1-0.5-0.4-0.8-0.3c-0.8,0.1-2,0-2.6,0.5c-1.1,1.1,0,4.6-0.6,5.2c-0.2,0.2-0.2,0.4-0.2,0.6c-0.1,0.4,0.2,0.7,0.2,1.1
			c0,1.2-0.2,2.5,0,3.7c0.1,0.9,0.8,0.9,1.5,1c0.7,0.1,2.1,0.6,2.7,0.3c0.2-0.1,0.2-0.2,0.4-0.1c0.5,0.3,1.8,0.1,2.4,0.2
			c0.4,0.1,0.5,0.1,1-0.2c0.3-0.1,0.7,0,0.9-0.1c1-0.4,2.2-1.2,2.4-2.4l0.2-1.7c0.4-0.7,0.3-1.7,0.3-2.5c0-0.3,0.2-0.5,0.2-0.8
			C476.4-62.4,476.1-64.5,476.1-64.7z"/>
		<path d="M516.6-68.1c-0.2,0.4-0.1,0.9-0.6,1.2c-0.1,0.1-0.3,0.2-0.3,0.5c-0.3,1.6-2.4,3.4-2.8,6c-0.1,0.2-0.7,0.8-0.8,1.3
			c-0.4,1.1-2.9,5-2.9,5.8c0,0.2,0.2,0.3,0.1,0.5c-0.1,0.2-0.4,0.1-0.6,0.3c-0.4,0.6-0.7,1.4-1,2c-0.2,0.4,0.2,0.7-0.1,1
			c-0.3,0.5,0.1,1.5,0,1.8c-0.4,0.8,0.1,1.6,0.1,2.5c0,0.5-0.1,1.1-0.1,1.7c0,1.2,0.4,2.3,0.2,3.5c-0.1,0.5-0.3,3.8-0.2,4.2
			c0.2,0.5,0.1,3-0.4,3.3c-0.5,0.3-1.2,0.2-1.8,0.4c-0.4,0.1-0.8-0.1-1.3,0.1c-1,0.2-2.5,0.1-2.5-0.7c0-0.2,0.2-0.3,0.2-0.5
			c0-0.4-0.6-1,0.1-1.2c0.3-0.2,0.5,0.7,0.8,0.4c0.2-0.2-0.1-1.3,0.1-1.6c0.2-0.4,0-0.7,0-1.1l-0.1-0.2c0-1.2,0-2.2-0.1-3.4
			c-0.1-2.2,0.3-5.7,0-7.7c-0.1-0.4-0.6-0.9-1-1.1c-0.2-0.1-0.1-0.3-0.2-0.4c-0.1-0.2-0.4-1.1-0.9-1.5c-0.2-0.2-0.5-0.2-0.5-0.2
			c-0.1-0.1,0.2-0.5,0.3-0.6c0.1-0.3-0.2-1-0.4-1.2c-0.3-0.3-0.2-1-0.5-1.2c-0.2-0.2-0.3,0-0.2-0.4c0-0.8-0.4-0.7-0.6-1.3
			c-0.1-0.3-0.7-1.2-0.7-1.4c0-0.2,0.1-0.3,0-0.5c0-0.2-0.2-0.2-0.2-0.3c-0.4-0.4-0.4-1-0.8-1.4c-0.2-0.3-0.7-1-0.9-1.2
			c-0.2-0.5,0.2-1.3-0.5-1.5l-0.7-1.2c0-0.2,0-0.2,0-0.3c-0.1-0.3-0.5-0.7-0.7-1.2c-0.2-0.8-2.5-4.8-1.7-5.2
			c0.2-0.2,2.4-0.2,2.8-0.4c0.3-0.2,0.4-0.2,0.8,0.1c0.2,0.2,0.6,0.2,0.8,0.2c0.8,0,1.3,1.3,1.7,2c0.1,0.2,0.3,0.2,0.4,0.5
			c0.1,0.2,0,0.2,0,0.4c0,0.4,1,1.7,1.2,2.2c0,0.3,0.1,0.3,0.3,0.4c0.1,0,0.5,1.5,0.7,1.8c0.2,0.2,0.4,0.4,0.4,0.6
			c0,0.2,0.1,0.5,0.2,0.7c0.1,0,0.5-0.2,0.4,0.1c0,0.2-0.3,0.2-0.2,0.7c0.1,0.2,0.5,1.4,0.8,1.2c0.4-0.1,0.4,1.5,0.7,1.7
			c0.2,0.4,0.8,2.7,1.4,1.8l0.4-0.6c0-0.5,0.3-1.1,0.7-1.5c0.2-0.2,0.2-0.6,0.4-0.9c0.2-0.8,0.8-1.2,1.1-2c0.2-0.9,0.9-1.7,1.2-2.5
			c0.2-0.5,0.6-0.8,0.8-1.3c0.1-0.5,0.4-1.2,0.7-1.5c0.4-0.7,1.5-2.6,1.7-3.3c0.4-1.3,2.2-0.5,2.4-0.6c0.6-0.2,2.5-0.2,3.1,0.2
			C517.8-70.1,516.9-68.5,516.6-68.1z"/>
	</g>
</g>
</svg>
